/* XPM */
static const char *icon_stop[]={
"32 32 2 1",
". c None",
"# c #303030",
"................................",
"................................",
"...##########################...",
"...##########################...",
"...##########################...",
"...##########################...",
"...##########################...",
"...##########################...",
"...##########################...",
"...##########################...",
"...##########################...",
"...##########################...",
"...##########################...",
"...##########################...",
"...##########################...",
"...##########################...",
"...##########################...",
"...##########################...",
"...##########################...",
"...##########################...",
"...##########################...",
"...##########################...",
"...##########################...",
"...##########################...",
"...##########################...",
"...##########################...",
"...##########################...",
"...##########################...",
"...##########################...",
"...##########################...",
"................................",
"................................"};
