/* XPM */
static const char *icon_pause[]={
"32 32 2 1",
". c None",
"# c #0000ff",
"................................",
"................................",
"...###########....###########...",
"...###########....###########...",
"...###########....###########...",
"...###########....###########...",
"...###########....###########...",
"...###########....###########...",
"...###########....###########...",
"...###########....###########...",
"...###########....###########...",
"...###########....###########...",
"...###########....###########...",
"...###########....###########...",
"...###########....###########...",
"...###########....###########...",
"...###########....###########...",
"...###########....###########...",
"...###########....###########...",
"...###########....###########...",
"...###########....###########...",
"...###########....###########...",
"...###########....###########...",
"...###########....###########...",
"...###########....###########...",
"...###########....###########...",
"...###########....###########...",
"...###########....###########...",
"...###########....###########...",
"...###########....###########...",
"................................",
"................................"};
