/* XPM */
static const char *icon_screenshot[]={
"32 32 7 1",
". c None",
"# c #303030",
"e c #808080",
"c c #c0ffff",
"a c #c3c3c3",
"b c #ffc0c0",
"d c #ffffc0",
"................................",
".##############################.",
".#aaaaaaaaaaaaaaaaaaaaaaaaaaaa#.",
".#aaaaaaaaaaaaaaaaaaaaaaaaaaaa#.",
".#aa###############aaaaaaaaaaa#.",
".#aa#bbbbbbbbbbbbb#aaaaaaaaaaa#.",
".#aa#bbbbbbbbbbbbb#aaa#######a#.",
".#aa#bbbbbbbbbbbbb#aaa#ccccc#a#.",
".#aa#bbbbbbbbbbbbb#aaa#ccccc#a#.",
".#aa#bbbbbbbbbbbbb#aaa#ccccc#a#.",
".#aa#bbbbbbbbbbbbb#aaa#######a#.",
".#aa#bbbbbbbbbbbbb#aaaaaaaaaaa#.",
".#aa#bbbbbbbbbbbbb#aaaaaaaaaaa#.",
".#aa#bbbb##################aaa#.",
".#aa#bbbb#dddddddddddddddd#aaa#.",
".#aa#bbbb#dddddddddddddddd#aaa#.",
".#aa#bbbb#dddddddddddddddd#aaa#.",
".#aa#bbbb#dddddddddddddddd#aaa#.",
".#aa######dddddddddddddddd#aaa#.",
".#aaaaaaa#dddddddddddddddd#aaa#.",
".#aaaaaaa#dddddddddddddddd#aaa#.",
".#aaaaaaa#dddddddddddddddd#aaa#.",
".#aaaaaaa#dddddddddddddddd#aaa#.",
".#aaaaaaa#dddddddddddddddd#aaa#.",
".#aaaaaaa##################aaa#.",
".#aaaaaaaaaaaaaaaaaaaaaaaaaaaa#.",
".#aaaaaaaaaaaaaaaaaaaaaaaaaaaa#.",
".##############################.",
".#eeeeeeeeeeeeeeeeeeeeeeeeeeee#.",
".#eeeeeeeeeeeeeeeeeeeeeeeeeeee#.",
".##############################.",
"................................"};
