/* XPM */
static char *dummy[]={
"32 32 2 1",
". c None",
"# c #999999",
"................................",
"................................",
"................................",
"..############################..",
"..############################..",
"..############################..",
"..############################..",
"..############################..",
"..############################..",
"................................",
"................................",
"................................",
"..############################..",
"..############################..",
"..############################..",
"..############################..",
"..############################..",
"..############################..",
"................................",
"................................",
"................................",
"..############################..",
"..############################..",
"..############################..",
"..############################..",
"..############################..",
"..############################..",
"................................",
"................................",
"................................",
"................................",
"................................"};
