/* XPM */
static const char *icon_play[]={
"32 32 2 1",
". c None",
"# c #00c000",
"................................",
"................................",
"...##...........................",
"...####.........................",
"...######.......................",
"...########.....................",
"...##########...................",
"...############.................",
"...##############...............",
"...################.............",
"...##################...........",
"...####################.........",
"...######################.......",
"...########################.....",
"...#########################....",
"...##########################...",
"...#########################....",
"...########################.....",
"...######################.......",
"...####################.........",
"...##################...........",
"...################.............",
"...##############...............",
"...############.................",
"...##########...................",
"...########.....................",
"...######.......................",
"...####.........................",
"...##...........................",
"................................",
"................................",
"................................"};
